<svg width="98" height="95" viewBox="0 0 98 95" fill="none" xmlns="http://www.w3.org/2000/svg">
<g clip-path="url(#clip0_5858_174)">
<path d="M93.5354 2.76442C91.1587 0.325842 87.6411 -0.582649 84.3614 0.373657L7.87811 22.6077C4.41758 23.5688 1.9648 26.3278 1.30407 29.8327C0.629078 33.3996 2.98678 37.9279 6.06704 39.8213L29.9818 54.5149C32.4345 56.0209 35.6002 55.6433 37.63 53.5969L65.0147 26.0504C66.3933 24.616 68.6749 24.616 70.0534 26.0504C71.4319 27.4371 71.4319 29.6844 70.0534 31.1187L42.6211 58.6699C40.5866 60.7118 40.2065 63.8914 41.7038 66.3587L56.3159 90.5053C58.027 93.3743 60.9742 95 64.2067 95C64.5868 95 65.0147 95 65.3948 94.9522C69.1028 94.4739 72.0499 91.9398 73.1431 88.3536L95.817 11.9928C96.8154 8.74134 95.9123 5.203 93.5354 2.76442Z" fill="#72B11F"/>
</g>
<defs>
<clipPath id="clip0_5858_174">
<rect width="98" height="95" fill="white"/>
</clipPath>
</defs>
</svg>
